<svg width="211" height="147" viewBox="0 0 211 147" fill="none" xmlns="http://www.w3.org/2000/svg">
<path d="M0.84375 12.5244V11.8057C0.84375 10.0296 1.29688 8.65983 2.20312 7.69629C3.10938 6.73275 4.26042 6.25098 5.65625 6.25098C7.03125 6.25098 8.11198 6.62077 8.89844 7.36035C9.6849 8.09993 10.0781 9.0166 10.0781 10.1104V10.2354H8.28125V10.0947C8.28125 9.38118 8.0625 8.80566 7.625 8.36816C7.19271 7.92546 6.53646 7.7041 5.65625 7.7041C4.77604 7.7041 4.05729 8.02962 3.5 8.68066C2.94271 9.3265 2.66406 10.3369 2.66406 11.7119V12.6182C2.66406 13.8942 2.9401 14.8812 3.49219 15.5791C4.04427 16.277 4.76823 16.626 5.66406 16.626C6.4974 16.626 7.125 16.402 7.54688 15.9541C7.97396 15.501 8.21875 14.9255 8.28125 14.2275V14.0947H10.0781L10.0703 14.2354C9.98698 15.3135 9.57292 16.2249 8.82812 16.9697C8.08854 17.7093 7.03125 18.0791 5.65625 18.0791C4.25521 18.0791 3.10156 17.5973 2.19531 16.6338C1.29427 15.665 0.84375 14.2952 0.84375 12.5244ZM17.0703 17.8525L14 14.1572L15.0859 12.9932L19.1328 17.8525H17.0703ZM12.6094 13.0088H14.1094L16.8672 9.67285H18.8203L14.9531 14.3447H12.6094V13.0088ZM13.4688 9.67285V17.8525H11.7344V9.67285H13.4688ZM19.6406 15.4463C19.6406 14.5921 19.9766 13.9359 20.6484 13.4775C21.3203 13.014 22.1745 12.7822 23.2109 12.7822H24.9766V12.2432C24.9766 11.7952 24.8594 11.4307 24.625 11.1494C24.3958 10.8682 23.9922 10.7275 23.4141 10.7275C22.8411 10.7275 22.4323 10.8447 22.1875 11.0791C21.9427 11.3135 21.8203 11.5895 21.8203 11.9072V11.9775H20.1094V11.8994C20.1094 11.2223 20.4141 10.6442 21.0234 10.165C21.638 9.68587 22.4557 9.44629 23.4766 9.44629C24.4974 9.44629 25.2917 9.67806 25.8594 10.1416C26.4271 10.6051 26.7109 11.3083 26.7109 12.251V15.9932C26.7109 16.3265 26.737 16.6442 26.7891 16.9463C26.8464 17.2432 26.9219 17.5036 27.0156 17.7275V17.8525H25.3281C25.2604 17.7275 25.1979 17.5635 25.1406 17.3604C25.0885 17.152 25.0521 16.9489 25.0312 16.751C24.8542 17.0791 24.5469 17.3708 24.1094 17.626C23.6719 17.8812 23.1172 18.0088 22.4453 18.0088C21.6589 18.0088 20.9948 17.7926 20.4531 17.3604C19.9115 16.9229 19.6406 16.2848 19.6406 15.4463ZM21.375 15.3291C21.375 15.7614 21.5 16.1025 21.75 16.3525C22 16.5973 22.388 16.7197 22.9141 16.7197C23.4609 16.7197 23.9401 16.5374 24.3516 16.1729C24.7682 15.8083 24.9766 15.4072 24.9766 14.9697V13.9307H23.4297C22.7474 13.9307 22.2344 14.0557 21.8906 14.3057C21.5469 14.5505 21.375 14.8916 21.375 15.3291ZM30.4297 11.8447C30.4297 12.4749 30.5521 12.9124 30.7969 13.1572C31.0417 13.402 31.4661 13.5244 32.0703 13.5244C32.5339 13.5244 32.9479 13.4906 33.3125 13.4229C33.6823 13.3551 34.0938 13.264 34.5469 13.1494V14.4697C34.1094 14.5635 33.6823 14.6494 33.2656 14.7275C32.8542 14.8005 32.3177 14.8369 31.6562 14.8369C30.6458 14.8369 29.8984 14.6025 29.4141 14.1338C28.9349 13.6598 28.6953 12.9229 28.6953 11.9229V9.67285H30.4297V11.8447ZM35.4062 9.67285V17.8525H33.6797V9.67285H35.4062ZM37.1719 15.4463C37.1719 14.5921 37.5078 13.9359 38.1797 13.4775C38.8516 13.014 39.7057 12.7822 40.7422 12.7822H42.5078V12.2432C42.5078 11.7952 42.3906 11.4307 42.1562 11.1494C41.9271 10.8682 41.5234 10.7275 40.9453 10.7275C40.3724 10.7275 39.9635 10.8447 39.7188 11.0791C39.474 11.3135 39.3516 11.5895 39.3516 11.9072V11.9775H37.6406V11.8994C37.6406 11.2223 37.9453 10.6442 38.5547 10.165C39.1693 9.68587 39.987 9.44629 41.0078 9.44629C42.0286 9.44629 42.8229 9.67806 43.3906 10.1416C43.9583 10.6051 44.2422 11.3083 44.2422 12.251V15.9932C44.2422 16.3265 44.2682 16.6442 44.3203 16.9463C44.3776 17.2432 44.4531 17.5036 44.5469 17.7275V17.8525H42.8594C42.7917 17.7275 42.7292 17.5635 42.6719 17.3604C42.6198 17.152 42.5833 16.9489 42.5625 16.751C42.3854 17.0791 42.0781 17.3708 41.6406 17.626C41.2031 17.8812 40.6484 18.0088 39.9766 18.0088C39.1901 18.0088 38.526 17.7926 37.9844 17.3604C37.4427 16.9229 37.1719 16.2848 37.1719 15.4463ZM38.9062 15.3291C38.9062 15.7614 39.0312 16.1025 39.2812 16.3525C39.5312 16.5973 39.9193 16.7197 40.4453 16.7197C40.9922 16.7197 41.4714 16.5374 41.8828 16.1729C42.2995 15.8083 42.5078 15.4072 42.5078 14.9697V13.9307H40.9609C40.2786 13.9307 39.7656 14.0557 39.4219 14.3057C39.0781 14.5505 38.9062 14.8916 38.9062 15.3291ZM46.4219 17.8525V9.67285H48.1328V14.3916C48.1328 14.5479 48.1302 14.7301 48.125 14.9385C48.125 15.1416 48.1198 15.3213 48.1094 15.4775H48.1797C48.2526 15.3473 48.3333 15.2041 48.4219 15.0479C48.5156 14.8916 48.6146 14.7223 48.7188 14.54L51.6875 9.67285H53.4219V17.8525H51.7109V13.126C51.7109 12.9697 51.7135 12.7874 51.7188 12.5791C51.7292 12.3656 51.7396 12.1807 51.75 12.0244H51.6406C51.5781 12.1598 51.5026 12.3083 51.4141 12.4697C51.3307 12.6312 51.2344 12.8005 51.125 12.9775L48.1562 17.8525H46.4219ZM49.9297 7.18848C50.3047 7.18848 50.6146 7.08431 50.8594 6.87598C51.1094 6.66243 51.3021 6.32129 51.4375 5.85254L52.6484 6.50098C52.4036 7.16764 52.0391 7.65202 51.5547 7.9541C51.0755 8.25098 50.5339 8.39941 49.9297 8.39941C49.3255 8.39941 48.7865 8.25358 48.3125 7.96191C47.8385 7.66504 47.474 7.17806 47.2188 6.50098L48.4531 5.82129C48.5938 6.33171 48.7839 6.68848 49.0234 6.8916C49.263 7.08952 49.5651 7.18848 49.9297 7.18848ZM54.7656 11.001V9.67285H61.5547V11.001H59.0234V17.8525H57.2969V11.001H54.7656ZM62.4219 13.8838V13.6338C62.4219 12.3942 62.7734 11.3864 63.4766 10.6104C64.1797 9.8291 65.1016 9.43848 66.2422 9.43848C67.3828 9.43848 68.2656 9.80306 68.8906 10.5322C69.5156 11.2562 69.8281 12.2458 69.8281 13.501V14.165H63.5234V12.9229H68.1016V12.7432C68.1068 12.2015 67.9505 11.7406 67.6328 11.3604C67.3203 10.9749 66.8672 10.7822 66.2734 10.7822C65.5703 10.7822 65.0417 11.0479 64.6875 11.5791C64.3385 12.1104 64.1641 12.7822 64.1641 13.5947V13.9229C64.1641 14.7354 64.3516 15.4072 64.7266 15.9385C65.1016 16.4697 65.6719 16.7354 66.4375 16.7354C66.9323 16.7354 67.3568 16.6234 67.7109 16.3994C68.0651 16.1755 68.3516 15.9124 68.5703 15.6104L69.7422 16.4463C69.4818 16.8734 69.0677 17.2536 68.5 17.5869C67.9375 17.9202 67.2552 18.0869 66.4531 18.0869C65.1667 18.0869 64.1719 17.6989 63.4688 16.9229C62.7708 16.1416 62.4219 15.1286 62.4219 13.8838ZM75.3594 9.67285H77.0938V13.0088H80.4766V9.67285H82.2109V17.8525H80.4766V14.3369H77.0938V17.8525H75.3594V9.67285ZM83.9688 15.4463C83.9688 14.5921 84.3047 13.9359 84.9766 13.4775C85.6484 13.014 86.5026 12.7822 87.5391 12.7822H89.3047V12.2432C89.3047 11.7952 89.1875 11.4307 88.9531 11.1494C88.724 10.8682 88.3203 10.7275 87.7422 10.7275C87.1693 10.7275 86.7604 10.8447 86.5156 11.0791C86.2708 11.3135 86.1484 11.5895 86.1484 11.9072V11.9775H84.4375V11.8994C84.4375 11.2223 84.7422 10.6442 85.3516 10.165C85.9661 9.68587 86.7839 9.44629 87.8047 9.44629C88.8255 9.44629 89.6198 9.67806 90.1875 10.1416C90.7552 10.6051 91.0391 11.3083 91.0391 12.251V15.9932C91.0391 16.3265 91.0651 16.6442 91.1172 16.9463C91.1745 17.2432 91.25 17.5036 91.3438 17.7275V17.8525H89.6562C89.5885 17.7275 89.526 17.5635 89.4688 17.3604C89.4167 17.152 89.3802 16.9489 89.3594 16.751C89.1823 17.0791 88.875 17.3708 88.4375 17.626C88 17.8812 87.4453 18.0088 86.7734 18.0088C85.987 18.0088 85.3229 17.7926 84.7812 17.3604C84.2396 16.9229 83.9688 16.2848 83.9688 15.4463ZM85.7031 15.3291C85.7031 15.7614 85.8281 16.1025 86.0781 16.3525C86.3281 16.5973 86.7161 16.7197 87.2422 16.7197C87.7891 16.7197 88.2682 16.5374 88.6797 16.1729C89.0964 15.8083 89.3047 15.4072 89.3047 14.9697V13.9307H87.7578C87.0755 13.9307 86.5625 14.0557 86.2188 14.3057C85.875 14.5505 85.7031 14.8916 85.7031 15.3291ZM93.2188 17.8525V9.67285H94.9531V16.5244H97.8906V9.67285H99.6172V16.5244H102.555V9.67285H104.289V17.8525H93.2188ZM106.016 13.8838V13.6338C106.016 12.3942 106.367 11.3864 107.07 10.6104C107.773 9.8291 108.695 9.43848 109.836 9.43848C110.977 9.43848 111.859 9.80306 112.484 10.5322C113.109 11.2562 113.422 12.2458 113.422 13.501V14.165H107.117V12.9229H111.695V12.7432C111.701 12.2015 111.544 11.7406 111.227 11.3604C110.914 10.9749 110.461 10.7822 109.867 10.7822C109.164 10.7822 108.635 11.0479 108.281 11.5791C107.932 12.1104 107.758 12.7822 107.758 13.5947V13.9229C107.758 14.7354 107.945 15.4072 108.32 15.9385C108.695 16.4697 109.266 16.7354 110.031 16.7354C110.526 16.7354 110.951 16.6234 111.305 16.3994C111.659 16.1755 111.945 15.9124 112.164 15.6104L113.336 16.4463C113.076 16.8734 112.661 17.2536 112.094 17.5869C111.531 17.9202 110.849 18.0869 110.047 18.0869C108.76 18.0869 107.766 17.6989 107.062 16.9229C106.365 16.1416 106.016 15.1286 106.016 13.8838ZM118.953 9.67285H125.727V17.8525H123.992V11.001H120.688V17.8525H118.953V9.67285ZM127.922 21.1104V9.67285H129.516L129.57 10.6963H129.617C129.81 10.3682 130.12 10.0895 130.547 9.86035C130.974 9.63118 131.464 9.5166 132.016 9.5166C133.057 9.5166 133.891 9.89941 134.516 10.665C135.146 11.4307 135.461 12.4202 135.461 13.6338V13.8838C135.461 15.0973 135.148 16.0895 134.523 16.8604C133.898 17.626 133.07 18.0088 132.039 18.0088C131.487 18.0088 131.008 17.9124 130.602 17.7197C130.195 17.5218 129.88 17.2588 129.656 16.9307V21.1104H127.922ZM129.656 15.3291C129.802 15.6729 130.044 15.9775 130.383 16.2432C130.727 16.5088 131.141 16.6416 131.625 16.6416C132.333 16.6416 132.854 16.389 133.188 15.8838C133.526 15.3734 133.695 14.7223 133.695 13.9307V13.5947C133.695 12.8031 133.526 12.1546 133.188 11.6494C132.854 11.139 132.331 10.8838 131.617 10.8838C131.133 10.8838 130.721 11.0166 130.383 11.2822C130.049 11.5426 129.807 11.8421 129.656 12.1807V15.3291ZM137.188 17.8525V9.67285H138.898V14.3916C138.898 14.5479 138.896 14.7301 138.891 14.9385C138.891 15.1416 138.885 15.3213 138.875 15.4775H138.945C139.018 15.3473 139.099 15.2041 139.188 15.0479C139.281 14.8916 139.38 14.7223 139.484 14.54L142.453 9.67285H144.188V17.8525H142.477V13.126C142.477 12.9697 142.479 12.7874 142.484 12.5791C142.495 12.3656 142.505 12.1807 142.516 12.0244H142.406C142.344 12.1598 142.268 12.3083 142.18 12.4697C142.096 12.6312 142 12.8005 141.891 12.9775L138.922 17.8525H137.188ZM148.727 11.001L148.586 14.0791C148.529 15.4958 148.341 16.5088 148.023 17.1182C147.711 17.7223 147.138 18.0244 146.305 18.0244C146.122 18.0244 145.951 18.0114 145.789 17.9854C145.633 17.9645 145.503 17.9307 145.398 17.8838V16.4697C145.487 16.5062 145.578 16.5322 145.672 16.5479C145.766 16.5635 145.867 16.5713 145.977 16.5713C146.372 16.5713 146.635 16.3786 146.766 15.9932C146.901 15.6025 146.99 14.8942 147.031 13.8682L147.211 9.67285H153.172V17.8525H151.445V11.001H148.727ZM154.922 13.8838V13.6338C154.922 12.3838 155.284 11.3734 156.008 10.6025C156.732 9.8265 157.693 9.43848 158.891 9.43848C160.089 9.43848 161.049 9.8265 161.773 10.6025C162.503 11.3734 162.867 12.3838 162.867 13.6338V13.8838C162.867 15.139 162.503 16.1546 161.773 16.9307C161.049 17.7015 160.089 18.0869 158.891 18.0869C157.693 18.0869 156.732 17.7015 156.008 16.9307C155.284 16.1546 154.922 15.139 154.922 13.8838ZM156.688 13.5947V13.9307C156.688 14.7484 156.872 15.4176 157.242 15.9385C157.617 16.4593 158.167 16.7197 158.891 16.7197C159.615 16.7197 160.164 16.4593 160.539 15.9385C160.914 15.4176 161.102 14.7484 161.102 13.9307V13.5947C161.102 12.777 160.914 12.1104 160.539 11.5947C160.164 11.0739 159.615 10.8135 158.891 10.8135C158.172 10.8135 157.625 11.0739 157.25 11.5947C156.875 12.1104 156.688 12.777 156.688 13.5947ZM170 17.8525H168.312V9.67285H170V17.8525ZM173.141 17.8525L170.641 14.1885L171.766 13.0635L175.086 17.8525H173.141ZM169.148 13.0088H170.672L172.898 9.67285H174.758L171.562 14.3447H169.148V13.0088ZM165.18 17.8525H163.289L166.609 13.0713L167.656 14.1885L165.18 17.8525ZM169.148 13.0088V14.3447H166.711L163.516 9.67285H165.422L167.648 13.0088H169.148ZM175.5 13.8838V13.6338C175.5 12.3942 175.852 11.3864 176.555 10.6104C177.258 9.8291 178.18 9.43848 179.32 9.43848C180.461 9.43848 181.344 9.80306 181.969 10.5322C182.594 11.2562 182.906 12.2458 182.906 13.501V14.165H176.602V12.9229H181.18V12.7432C181.185 12.2015 181.029 11.7406 180.711 11.3604C180.398 10.9749 179.945 10.7822 179.352 10.7822C178.648 10.7822 178.12 11.0479 177.766 11.5791C177.417 12.1104 177.242 12.7822 177.242 13.5947V13.9229C177.242 14.7354 177.43 15.4072 177.805 15.9385C178.18 16.4697 178.75 16.7354 179.516 16.7354C180.01 16.7354 180.435 16.6234 180.789 16.3994C181.143 16.1755 181.43 15.9124 181.648 15.6104L182.82 16.4463C182.56 16.8734 182.146 17.2536 181.578 17.5869C181.016 17.9202 180.333 18.0869 179.531 18.0869C178.245 18.0869 177.25 17.6989 176.547 16.9229C175.849 16.1416 175.5 15.1286 175.5 13.8838ZM184.562 9.67285H186.297V13.0088H189.68V9.67285H191.414V17.8525H189.68V14.3369H186.297V17.8525H184.562V9.67285ZM193.609 17.8525V9.67285H195.32V14.3916C195.32 14.5479 195.318 14.7301 195.312 14.9385C195.312 15.1416 195.307 15.3213 195.297 15.4775H195.367C195.44 15.3473 195.521 15.2041 195.609 15.0479C195.703 14.8916 195.802 14.7223 195.906 14.54L198.875 9.67285H200.609V17.8525H198.898V13.126C198.898 12.9697 198.901 12.7874 198.906 12.5791C198.917 12.3656 198.927 12.1807 198.938 12.0244H198.828C198.766 12.1598 198.69 12.3083 198.602 12.4697C198.518 12.6312 198.422 12.8005 198.312 12.9775L195.344 17.8525H193.609ZM202.344 13.8838V13.6338C202.344 12.3942 202.695 11.3864 203.398 10.6104C204.102 9.8291 205.023 9.43848 206.164 9.43848C207.305 9.43848 208.188 9.80306 208.812 10.5322C209.438 11.2562 209.75 12.2458 209.75 13.501V14.165H203.445V12.9229H208.023V12.7432C208.029 12.2015 207.872 11.7406 207.555 11.3604C207.242 10.9749 206.789 10.7822 206.195 10.7822C205.492 10.7822 204.964 11.0479 204.609 11.5791C204.26 12.1104 204.086 12.7822 204.086 13.5947V13.9229C204.086 14.7354 204.273 15.4072 204.648 15.9385C205.023 16.4697 205.594 16.7354 206.359 16.7354C206.854 16.7354 207.279 16.6234 207.633 16.3994C207.987 16.1755 208.273 15.9124 208.492 15.6104L209.664 16.4463C209.404 16.8734 208.99 17.2536 208.422 17.5869C207.859 17.9202 207.177 18.0869 206.375 18.0869C205.089 18.0869 204.094 17.6989 203.391 16.9229C202.693 16.1416 202.344 15.1286 202.344 13.8838Z" fill="white"/>
<rect y="36.8525" width="138" height="49" rx="6" fill="#0E0E0F"/>
<g clip-path="url(#clip0_1516_3799)">
<path d="M23.2086 60.7319L12.0999 72.4299C12.2246 72.8743 12.4488 73.2841 12.7553 73.628C13.0617 73.9719 13.4424 74.2409 13.8681 74.4143C14.2938 74.5877 14.7534 74.6609 15.2116 74.6285C15.6698 74.596 16.1146 74.4587 16.5119 74.227L29.0113 67.0718L23.2086 60.7319Z" fill="#EA4335"/>
<path d="M34.4415 58.7441L29.0363 55.6323L22.9521 60.9986L29.0611 67.0556L34.4251 63.9772C34.9003 63.7271 35.2983 63.3511 35.576 62.8898C35.8537 62.4286 36.0005 61.8997 36.0005 61.3606C36.0005 60.8215 35.8537 60.2926 35.576 59.8314C35.2983 59.3702 34.9003 58.9941 34.4251 58.744H34.4417L34.4415 58.7441Z" fill="#FBBC04"/>
<path d="M12.0994 50.2319C12.0323 50.4814 11.9988 50.7389 12 50.9974V71.6642C12.0007 71.9226 12.0341 72.1798 12.0994 72.4297L23.5889 61.0313L12.0994 50.2319Z" fill="#4285F4"/>
<path d="M23.2914 61.3311L29.0362 55.6319L16.5534 48.4434C16.0837 48.1669 15.5495 48.0205 15.0053 48.019C13.6546 48.0164 12.4672 48.9174 12.0999 50.2239L23.2914 61.3311Z" fill="#34A853"/>
</g>
<path d="M44.2557 56.6139V54.0713H44.7244C44.8854 53.9245 45.0369 53.7174 45.179 53.4498C45.3234 53.18 45.4453 52.8201 45.5447 52.3703C45.6465 51.9181 45.714 51.344 45.7472 50.648L45.9034 47.5798H50.2216V54.0713H51.0597V56.5997H50.2216V54.8525H45.0938V56.6139H44.2557ZM45.7756 54.0713H49.3835V48.3611H46.6989L46.5852 50.648C46.5568 51.1783 46.5071 51.6589 46.4361 52.0898C46.3651 52.5183 46.2739 52.8982 46.1626 53.2297C46.0514 53.5587 45.9223 53.8393 45.7756 54.0713ZM58.5268 51.2162C58.5268 51.9832 58.3883 52.6461 58.1113 53.2048C57.8343 53.7635 57.4544 54.1944 56.9714 54.4974C56.4885 54.8005 55.9368 54.952 55.3166 54.952C54.6963 54.952 54.1447 54.8005 53.6618 54.4974C53.1788 54.1944 52.7988 53.7635 52.5218 53.2048C52.2449 52.6461 52.1064 51.9832 52.1064 51.2162C52.1064 50.4491 52.2449 49.7863 52.5218 49.2275C52.7988 48.6688 53.1788 48.238 53.6618 47.9349C54.1447 47.6319 54.6963 47.4804 55.3166 47.4804C55.9368 47.4804 56.4885 47.6319 56.9714 47.9349C57.4544 48.238 57.8343 48.6688 58.1113 49.2275C58.3883 49.7863 58.5268 50.4491 58.5268 51.2162ZM57.6745 51.2162C57.6745 50.5864 57.5692 50.055 57.3585 49.6217C57.1502 49.1885 56.8672 48.8606 56.5098 48.6381C56.1547 48.4155 55.7569 48.3042 55.3166 48.3042C54.8762 48.3042 54.4773 48.4155 54.1199 48.6381C53.7647 48.8606 53.4818 49.1885 53.2711 49.6217C53.0628 50.055 52.9586 50.5864 52.9586 51.2162C52.9586 51.8459 53.0628 52.3774 53.2711 52.8106C53.4818 53.2439 53.7647 53.5718 54.1199 53.7943C54.4773 54.0168 54.8762 54.1281 55.3166 54.1281C55.7569 54.1281 56.1547 54.0168 56.5098 53.7943C56.8672 53.5718 57.1502 53.2439 57.3585 52.8106C57.5692 52.3774 57.6745 51.8459 57.6745 51.2162ZM65.8599 49.8525H64.9792C64.9271 49.5992 64.836 49.3767 64.7058 49.1849C64.5779 48.9932 64.4217 48.8322 64.237 48.702C64.0547 48.5694 63.8523 48.47 63.6298 48.4037C63.4073 48.3374 63.1752 48.3042 62.9338 48.3042C62.4934 48.3042 62.0945 48.4155 61.737 48.6381C61.3819 48.8606 61.099 49.1885 60.8883 49.6217C60.68 50.055 60.5758 50.5864 60.5758 51.2162C60.5758 51.8459 60.68 52.3774 60.8883 52.8106C61.099 53.2439 61.3819 53.5718 61.737 53.7943C62.0945 54.0168 62.4934 54.1281 62.9338 54.1281C63.1752 54.1281 63.4073 54.095 63.6298 54.0287C63.8523 53.9624 64.0547 53.8641 64.237 53.7339C64.4217 53.6014 64.5779 53.4392 64.7058 53.2474C64.836 53.0533 64.9271 52.8308 64.9792 52.5798H65.8599C65.7936 52.9515 65.6729 53.2841 65.4977 53.5777C65.3225 53.8712 65.1047 54.121 64.8443 54.327C64.5839 54.5306 64.2915 54.6856 63.9672 54.7922C63.6452 54.8987 63.3007 54.952 62.9338 54.952C62.3135 54.952 61.7619 54.8005 61.2789 54.4974C60.796 54.1944 60.416 53.7635 60.139 53.2048C59.862 52.6461 59.7235 51.9832 59.7235 51.2162C59.7235 50.4491 59.862 49.7863 60.139 49.2275C60.416 48.6688 60.796 48.238 61.2789 47.9349C61.7619 47.6319 62.3135 47.4804 62.9338 47.4804C63.3007 47.4804 63.6452 47.5336 63.9672 47.6402C64.2915 47.7467 64.5839 47.903 64.8443 48.1089C65.1047 48.3125 65.3225 48.5611 65.4977 48.8547C65.6729 49.1459 65.7936 49.4785 65.8599 49.8525ZM66.8853 48.3611V47.5798H72.3398V48.3611H70.0529V54.8525H69.1722V48.3611H66.8853ZM74.0826 54.952V54.1281H74.5371C74.7123 54.1281 74.8591 54.0938 74.9775 54.0251C75.0982 53.9565 75.1976 53.8677 75.2757 53.7588C75.3562 53.6499 75.4225 53.5363 75.4746 53.4179L75.5882 53.148L73.074 47.5798H74.0257L76.0286 52.0969L77.861 47.5798H78.7985L76.2843 53.6736C76.1848 53.9008 76.0712 54.1115 75.9434 54.3057C75.8179 54.4998 75.6462 54.656 75.4284 54.7744C75.213 54.8928 74.9206 54.952 74.5513 54.952H74.0826ZM85.3796 47.5798V54.8525H84.4989V48.3611H80.8342V54.8525H79.9535V47.5798H85.3796ZM87.1561 54.8525V47.5798H88.0368V50.8184H91.9146V47.5798H92.7953V54.8525H91.9146V51.5997H88.0368V54.8525H87.1561ZM100.695 51.2162C100.695 51.9832 100.556 52.6461 100.279 53.2048C100.002 53.7635 99.6223 54.1944 99.1394 54.4974C98.6564 54.8005 98.1048 54.952 97.4846 54.952C96.8643 54.952 96.3127 54.8005 95.8297 54.4974C95.3468 54.1944 94.9668 53.7635 94.6898 53.2048C94.4128 52.6461 94.2743 51.9832 94.2743 51.2162C94.2743 50.4491 94.4128 49.7863 94.6898 49.2275C94.9668 48.6688 95.3468 48.238 95.8297 47.9349C96.3127 47.6319 96.8643 47.4804 97.4846 47.4804C98.1048 47.4804 98.6564 47.6319 99.1394 47.9349C99.6223 48.238 100.002 48.6688 100.279 49.2275C100.556 49.7863 100.695 50.4491 100.695 51.2162ZM99.8425 51.2162C99.8425 50.5864 99.7372 50.055 99.5265 49.6217C99.3181 49.1885 99.0352 48.8606 98.6777 48.6381C98.3226 48.4155 97.9249 48.3042 97.4846 48.3042C97.0442 48.3042 96.6453 48.4155 96.2878 48.6381C95.9327 48.8606 95.6498 49.1885 95.4391 49.6217C95.2308 50.055 95.1266 50.5864 95.1266 51.2162C95.1266 51.8459 95.2308 52.3774 95.4391 52.8106C95.6498 53.2439 95.9327 53.5718 96.2878 53.7943C96.6453 54.0168 97.0442 54.1281 97.4846 54.1281C97.9249 54.1281 98.3226 54.0168 98.6777 53.7943C99.0352 53.5718 99.3181 53.2439 99.5265 52.8106C99.7372 52.3774 99.8425 51.8459 99.8425 51.2162ZM104.988 54.8525V47.5798H107.531C108.037 47.5798 108.455 47.6674 108.784 47.8426C109.113 48.0154 109.358 48.2486 109.519 48.5422C109.68 48.8334 109.761 49.1565 109.761 49.5116C109.761 49.8241 109.705 50.0822 109.594 50.2858C109.485 50.4894 109.341 50.6504 109.161 50.7687C108.983 50.8871 108.79 50.9747 108.582 51.0315V51.1025C108.804 51.1167 109.028 51.1949 109.253 51.3369C109.478 51.479 109.666 51.6826 109.818 51.9477C109.969 52.2129 110.045 52.5372 110.045 52.9207C110.045 53.2853 109.962 53.6132 109.796 53.9044C109.631 54.1956 109.369 54.4264 109.012 54.5969C108.654 54.7673 108.189 54.8525 107.616 54.8525H104.988ZM105.869 54.0713H107.616C108.191 54.0713 108.6 53.96 108.841 53.7375C109.085 53.5126 109.207 53.2403 109.207 52.9207C109.207 52.6745 109.144 52.4472 109.019 52.2389C108.893 52.0282 108.714 51.8601 108.482 51.7346C108.25 51.6068 107.976 51.5429 107.659 51.5429H105.869V54.0713ZM105.869 50.7758H107.502C107.767 50.7758 108.007 50.7238 108.22 50.6196C108.435 50.5154 108.606 50.3686 108.731 50.1792C108.859 49.9898 108.923 49.7673 108.923 49.5116C108.923 49.192 108.811 48.921 108.589 48.6984C108.366 48.4735 108.014 48.3611 107.531 48.3611H105.869V50.7758Z" fill="white"/>
<path d="M52.1945 64.9225C51.9425 64.4372 51.5925 64.0732 51.1445 63.8305C50.6965 63.5785 50.1785 63.4525 49.5905 63.4525C48.9465 63.4525 48.3725 63.5972 47.8685 63.8865C47.3645 64.1759 46.9679 64.5865 46.6785 65.1185C46.3985 65.6505 46.2585 66.2665 46.2585 66.9665C46.2585 67.6665 46.3985 68.2872 46.6785 68.8285C46.9679 69.3605 47.3645 69.7712 47.8685 70.0605C48.3725 70.3499 48.9465 70.4945 49.5905 70.4945C50.4585 70.4945 51.1632 70.2519 51.7045 69.7665C52.2459 69.2812 52.5772 68.6232 52.6985 67.7925H49.0445V66.5185H54.4065V67.7645C54.3039 68.5205 54.0332 69.2159 53.5945 69.8505C53.1652 70.4852 52.6005 70.9939 51.9005 71.3765C51.2099 71.7499 50.4399 71.9365 49.5905 71.9365C48.6759 71.9365 47.8405 71.7265 47.0845 71.3065C46.3285 70.8772 45.7265 70.2845 45.2785 69.5285C44.8399 68.7725 44.6205 67.9185 44.6205 66.9665C44.6205 66.0145 44.8399 65.1605 45.2785 64.4045C45.7265 63.6485 46.3285 63.0605 47.0845 62.6405C47.8499 62.2112 48.6852 61.9965 49.5905 61.9965C50.6265 61.9965 51.5459 62.2532 52.3485 62.7665C53.1605 63.2705 53.7485 63.9892 54.1125 64.9225H52.1945ZM59.3267 71.9785C58.5987 71.9785 57.9407 71.8152 57.3527 71.4885C56.7647 71.1525 56.3027 70.6859 55.9667 70.0885C55.6307 69.4819 55.4627 68.7819 55.4627 67.9885C55.4627 67.2045 55.6353 66.5092 55.9807 65.9025C56.326 65.2959 56.7973 64.8292 57.3947 64.5025C57.992 64.1759 58.6593 64.0125 59.3967 64.0125C60.134 64.0125 60.8013 64.1759 61.3987 64.5025C61.996 64.8292 62.4673 65.2959 62.8127 65.9025C63.158 66.5092 63.3307 67.2045 63.3307 67.9885C63.3307 68.7725 63.1533 69.4679 62.7987 70.0745C62.444 70.6812 61.9587 71.1525 61.3427 71.4885C60.736 71.8152 60.064 71.9785 59.3267 71.9785ZM59.3267 70.5925C59.7373 70.5925 60.12 70.4945 60.4747 70.2985C60.8387 70.1025 61.1327 69.8085 61.3567 69.4165C61.5807 69.0245 61.6927 68.5485 61.6927 67.9885C61.6927 67.4285 61.5853 66.9572 61.3707 66.5745C61.156 66.1825 60.8713 65.8885 60.5167 65.6925C60.162 65.4965 59.7793 65.3985 59.3687 65.3985C58.958 65.3985 58.5753 65.4965 58.2207 65.6925C57.8753 65.8885 57.6 66.1825 57.3947 66.5745C57.1893 66.9572 57.0867 67.4285 57.0867 67.9885C57.0867 68.8192 57.2967 69.4632 57.7167 69.9205C58.146 70.3685 58.6827 70.5925 59.3267 70.5925ZM68.2544 71.9785C67.5264 71.9785 66.8684 71.8152 66.2804 71.4885C65.6924 71.1525 65.2304 70.6859 64.8944 70.0885C64.5584 69.4819 64.3904 68.7819 64.3904 67.9885C64.3904 67.2045 64.5631 66.5092 64.9084 65.9025C65.2537 65.2959 65.7251 64.8292 66.3224 64.5025C66.9197 64.1759 67.5871 64.0125 68.3244 64.0125C69.0617 64.0125 69.7291 64.1759 70.3264 64.5025C70.9237 64.8292 71.3951 65.2959 71.7404 65.9025C72.0857 66.5092 72.2584 67.2045 72.2584 67.9885C72.2584 68.7725 72.0811 69.4679 71.7264 70.0745C71.3717 70.6812 70.8864 71.1525 70.2704 71.4885C69.6637 71.8152 68.9917 71.9785 68.2544 71.9785ZM68.2544 70.5925C68.6651 70.5925 69.0477 70.4945 69.4024 70.2985C69.7664 70.1025 70.0604 69.8085 70.2844 69.4165C70.5084 69.0245 70.6204 68.5485 70.6204 67.9885C70.6204 67.4285 70.5131 66.9572 70.2984 66.5745C70.0837 66.1825 69.7991 65.8885 69.4444 65.6925C69.0897 65.4965 68.7071 65.3985 68.2964 65.3985C67.8857 65.3985 67.5031 65.4965 67.1484 65.6925C66.8031 65.8885 66.5277 66.1825 66.3224 66.5745C66.1171 66.9572 66.0144 67.4285 66.0144 67.9885C66.0144 68.8192 66.2244 69.4632 66.6444 69.9205C67.0737 70.3685 67.6104 70.5925 68.2544 70.5925ZM76.9441 64.0125C77.5415 64.0125 78.0688 64.1339 78.5261 64.3765C78.9928 64.6099 79.3568 64.9039 79.6181 65.2585V64.1385H81.2281V71.9785C81.2281 72.6879 81.0788 73.3179 80.7801 73.8685C80.4815 74.4285 80.0475 74.8672 79.4781 75.1845C78.9181 75.5019 78.2461 75.6605 77.4621 75.6605C76.4168 75.6605 75.5488 75.4132 74.8581 74.9185C74.1675 74.4332 73.7755 73.7705 73.6821 72.9305H75.2641C75.3855 73.3319 75.6421 73.6539 76.0341 73.8965C76.4355 74.1485 76.9115 74.2745 77.4621 74.2745C78.1061 74.2745 78.6241 74.0785 79.0161 73.6865C79.4175 73.2945 79.6181 72.7252 79.6181 71.9785V70.6905C79.3475 71.0545 78.9788 71.3625 78.5121 71.6145C78.0548 71.8572 77.5321 71.9785 76.9441 71.9785C76.2721 71.9785 75.6561 71.8105 75.0961 71.4745C74.5455 71.1292 74.1068 70.6532 73.7801 70.0465C73.4628 69.4305 73.3041 68.7352 73.3041 67.9605C73.3041 67.1859 73.4628 66.4999 73.7801 65.9025C74.1068 65.3052 74.5455 64.8432 75.0961 64.5165C75.6561 64.1805 76.2721 64.0125 76.9441 64.0125ZM79.6181 67.9885C79.6181 67.4565 79.5061 66.9945 79.2821 66.6025C79.0675 66.2105 78.7828 65.9119 78.4281 65.7065C78.0735 65.5012 77.6908 65.3985 77.2801 65.3985C76.8695 65.3985 76.4868 65.5012 76.1321 65.7065C75.7775 65.9025 75.4881 66.1965 75.2641 66.5885C75.0495 66.9712 74.9421 67.4285 74.9421 67.9605C74.9421 68.4925 75.0495 68.9592 75.2641 69.3605C75.4881 69.7619 75.7775 70.0699 76.1321 70.2845C76.4961 70.4899 76.8788 70.5925 77.2801 70.5925C77.6908 70.5925 78.0735 70.4899 78.4281 70.2845C78.7828 70.0792 79.0675 69.7805 79.2821 69.3885C79.5061 68.9872 79.6181 68.5205 79.6181 67.9885ZM84.9204 61.4925V71.8525H83.3244V61.4925H84.9204ZM94.0858 67.8065C94.0858 68.0959 94.0672 68.3572 94.0298 68.5905H88.1358C88.1825 69.2065 88.4112 69.7012 88.8218 70.0745C89.2325 70.4479 89.7365 70.6345 90.3338 70.6345C91.1925 70.6345 91.7992 70.2752 92.1538 69.5565H93.8758C93.6425 70.2659 93.2178 70.8492 92.6018 71.3065C91.9952 71.7545 91.2392 71.9785 90.3338 71.9785C89.5965 71.9785 88.9338 71.8152 88.3458 71.4885C87.7672 71.1525 87.3098 70.6859 86.9738 70.0885C86.6472 69.4819 86.4838 68.7819 86.4838 67.9885C86.4838 67.1952 86.6425 66.4999 86.9598 65.9025C87.2865 65.2959 87.7392 64.8292 88.3178 64.5025C88.9058 64.1759 89.5778 64.0125 90.3338 64.0125C91.0618 64.0125 91.7105 64.1712 92.2798 64.4885C92.8492 64.8059 93.2925 65.2539 93.6098 65.8325C93.9272 66.4019 94.0858 67.0599 94.0858 67.8065ZM92.4198 67.3025C92.4105 66.7145 92.2005 66.2432 91.7898 65.8885C91.3792 65.5339 90.8705 65.3565 90.2638 65.3565C89.7132 65.3565 89.2418 65.5339 88.8498 65.8885C88.4578 66.2339 88.2245 66.7052 88.1498 67.3025H92.4198ZM106.097 65.0205C106.097 65.5152 105.98 65.9819 105.747 66.4205C105.514 66.8592 105.14 67.2185 104.627 67.4985C104.114 67.7692 103.456 67.9045 102.653 67.9045H100.889V71.8525H99.2932V62.1225H102.653C103.4 62.1225 104.03 62.2532 104.543 62.5145C105.066 62.7665 105.453 63.1119 105.705 63.5505C105.966 63.9892 106.097 64.4792 106.097 65.0205ZM102.653 66.6025C103.26 66.6025 103.712 66.4672 104.011 66.1965C104.31 65.9165 104.459 65.5245 104.459 65.0205C104.459 63.9565 103.857 63.4245 102.653 63.4245H100.889V66.6025H102.653ZM109.215 61.4925V71.8525H107.619V61.4925H109.215ZM110.779 67.9605C110.779 67.1859 110.937 66.4999 111.255 65.9025C111.581 65.3052 112.02 64.8432 112.571 64.5165C113.131 64.1805 113.747 64.0125 114.419 64.0125C115.025 64.0125 115.553 64.1339 116.001 64.3765C116.458 64.6099 116.822 64.9039 117.093 65.2585V64.1385H118.703V71.8525H117.093V70.7045C116.822 71.0685 116.453 71.3719 115.987 71.6145C115.52 71.8572 114.988 71.9785 114.391 71.9785C113.728 71.9785 113.121 71.8105 112.571 71.4745C112.02 71.1292 111.581 70.6532 111.255 70.0465C110.937 69.4305 110.779 68.7352 110.779 67.9605ZM117.093 67.9885C117.093 67.4565 116.981 66.9945 116.757 66.6025C116.542 66.2105 116.257 65.9119 115.903 65.7065C115.548 65.5012 115.165 65.3985 114.755 65.3985C114.344 65.3985 113.961 65.5012 113.607 65.7065C113.252 65.9025 112.963 66.1965 112.739 66.5885C112.524 66.9712 112.417 67.4285 112.417 67.9605C112.417 68.4925 112.524 68.9592 112.739 69.3605C112.963 69.7619 113.252 70.0699 113.607 70.2845C113.971 70.4899 114.353 70.5925 114.755 70.5925C115.165 70.5925 115.548 70.4899 115.903 70.2845C116.257 70.0792 116.542 69.7805 116.757 69.3885C116.981 68.9872 117.093 68.5205 117.093 67.9885ZM127.743 64.1385L123.011 75.4785H121.359L122.927 71.7265L119.889 64.1385H121.667L123.837 70.0185L126.091 64.1385H127.743Z" fill="white"/>
<rect y="97.8525" width="138" height="49" rx="6" fill="#0E0E0F"/>
<g clip-path="url(#clip1_1516_3799)">
<path d="M17.694 109.353H32.306C35.4508 109.353 38 111.902 38 115.047V129.659C38 132.803 35.4508 135.353 32.306 135.353H17.694C14.5492 135.353 12 132.803 12 129.659V115.047C12 111.902 14.5492 109.353 17.694 109.353Z" fill="url(#paint0_linear_1516_3799)"/>
<path d="M20.3324 128.224L20.3348 128.225L19.4458 129.764C19.1213 130.326 18.4027 130.519 17.8406 130.195C17.2787 129.87 17.086 129.151 17.4105 128.589L18.0654 127.455L18.1282 127.346C18.2405 127.185 18.5174 126.906 19.0715 126.959C19.0715 126.959 20.3752 127.1 20.4696 127.778C20.4696 127.778 20.4824 128.001 20.3324 128.224ZM32.9406 124.291H30.1686C29.9798 124.279 29.8974 124.211 29.8649 124.172L29.8629 124.169L26.8955 119.029L26.8917 119.031L26.7137 118.776C26.422 118.33 25.9589 119.471 25.9589 119.471C25.4059 120.742 26.0374 122.187 26.2575 122.624L30.3791 129.763C30.7035 130.325 31.4222 130.518 31.9843 130.193C32.5463 129.868 32.7389 129.15 32.4143 128.588L31.3838 126.803C31.3638 126.759 31.329 126.642 31.5404 126.641H32.9406C33.5896 126.641 34.1157 126.115 34.1157 125.466C34.1157 124.817 33.5896 124.291 32.9406 124.291ZM27.5564 125.889C27.5564 125.889 27.7044 126.641 27.1319 126.641H16.8843C16.2353 126.641 15.7092 126.115 15.7092 125.466C15.7092 124.817 16.2353 124.291 16.8843 124.291H19.5188C19.9442 124.267 20.0449 124.021 20.0449 124.021L20.0474 124.022L23.4863 118.066L23.4853 118.066C23.5479 117.951 23.4957 117.842 23.4867 117.825L22.3509 115.857C22.0264 115.296 22.219 114.577 22.781 114.252C23.3431 113.928 24.0617 114.12 24.3862 114.682L24.9129 115.595L25.4387 114.684C25.7632 114.122 26.4819 113.929 27.0439 114.254C27.606 114.578 27.7985 115.297 27.474 115.859L22.6886 124.148C22.6677 124.198 22.6613 124.277 22.817 124.291H25.6774L25.678 124.319C25.678 124.319 27.3312 124.345 27.5564 125.889Z" fill="white"/>
</g>
<path d="M46.2557 117.614V115.071H46.7244C46.8854 114.925 47.0369 114.717 47.179 114.45C47.3234 114.18 47.4453 113.82 47.5447 113.37C47.6465 112.918 47.714 112.344 47.7472 111.648L47.9034 108.58H52.2216V115.071H53.0597V117.6H52.2216V115.853H47.0938V117.614H46.2557ZM47.7756 115.071H51.3835V109.361H48.6989L48.5852 111.648C48.5568 112.178 48.5071 112.659 48.4361 113.09C48.3651 113.518 48.2739 113.898 48.1626 114.23C48.0514 114.559 47.9223 114.839 47.7756 115.071ZM60.5268 112.216C60.5268 112.983 60.3883 113.646 60.1113 114.205C59.8343 114.764 59.4544 115.194 58.9714 115.497C58.4885 115.8 57.9368 115.952 57.3166 115.952C56.6963 115.952 56.1447 115.8 55.6618 115.497C55.1788 115.194 54.7988 114.764 54.5218 114.205C54.2449 113.646 54.1064 112.983 54.1064 112.216C54.1064 111.449 54.2449 110.786 54.5218 110.228C54.7988 109.669 55.1788 109.238 55.6618 108.935C56.1447 108.632 56.6963 108.48 57.3166 108.48C57.9368 108.48 58.4885 108.632 58.9714 108.935C59.4544 109.238 59.8343 109.669 60.1113 110.228C60.3883 110.786 60.5268 111.449 60.5268 112.216ZM59.6745 112.216C59.6745 111.586 59.5692 111.055 59.3585 110.622C59.1502 110.188 58.8672 109.861 58.5098 109.638C58.1547 109.416 57.7569 109.304 57.3166 109.304C56.8762 109.304 56.4773 109.416 56.1199 109.638C55.7647 109.861 55.4818 110.188 55.2711 110.622C55.0628 111.055 54.9586 111.586 54.9586 112.216C54.9586 112.846 55.0628 113.377 55.2711 113.811C55.4818 114.244 55.7647 114.572 56.1199 114.794C56.4773 115.017 56.8762 115.128 57.3166 115.128C57.7569 115.128 58.1547 115.017 58.5098 114.794C58.8672 114.572 59.1502 114.244 59.3585 113.811C59.5692 113.377 59.6745 112.846 59.6745 112.216ZM67.8599 110.853H66.9792C66.9271 110.599 66.836 110.377 66.7058 110.185C66.5779 109.993 66.4217 109.832 66.237 109.702C66.0547 109.569 65.8523 109.47 65.6298 109.404C65.4073 109.337 65.1752 109.304 64.9338 109.304C64.4934 109.304 64.0945 109.416 63.737 109.638C63.3819 109.861 63.099 110.188 62.8883 110.622C62.68 111.055 62.5758 111.586 62.5758 112.216C62.5758 112.846 62.68 113.377 62.8883 113.811C63.099 114.244 63.3819 114.572 63.737 114.794C64.0945 115.017 64.4934 115.128 64.9338 115.128C65.1752 115.128 65.4073 115.095 65.6298 115.029C65.8523 114.962 66.0547 114.864 66.237 114.734C66.4217 114.601 66.5779 114.439 66.7058 114.247C66.836 114.053 66.9271 113.831 66.9792 113.58H67.8599C67.7936 113.951 67.6729 114.284 67.4977 114.578C67.3225 114.871 67.1047 115.121 66.8443 115.327C66.5839 115.531 66.2915 115.686 65.9672 115.792C65.6452 115.899 65.3007 115.952 64.9338 115.952C64.3135 115.952 63.7619 115.8 63.2789 115.497C62.796 115.194 62.416 114.764 62.139 114.205C61.862 113.646 61.7235 112.983 61.7235 112.216C61.7235 111.449 61.862 110.786 62.139 110.228C62.416 109.669 62.796 109.238 63.2789 108.935C63.7619 108.632 64.3135 108.48 64.9338 108.48C65.3007 108.48 65.6452 108.534 65.9672 108.64C66.2915 108.747 66.5839 108.903 66.8443 109.109C67.1047 109.313 67.3225 109.561 67.4977 109.855C67.6729 110.146 67.7936 110.478 67.8599 110.853ZM68.8853 109.361V108.58H74.3398V109.361H72.0529V115.853H71.1722V109.361H68.8853ZM76.0826 115.952V115.128H76.5371C76.7123 115.128 76.8591 115.094 76.9775 115.025C77.0982 114.956 77.1976 114.868 77.2757 114.759C77.3562 114.65 77.4225 114.536 77.4746 114.418L77.5882 114.148L75.074 108.58H76.0257L78.0286 113.097L79.861 108.58H80.7985L78.2843 114.674C78.1848 114.901 78.0712 115.112 77.9434 115.306C77.8179 115.5 77.6462 115.656 77.4284 115.774C77.213 115.893 76.9206 115.952 76.5513 115.952H76.0826ZM87.3796 108.58V115.853H86.4989V109.361H82.8342V115.853H81.9535V108.58H87.3796ZM89.1561 115.853V108.58H90.0368V111.818H93.9146V108.58H94.7953V115.853H93.9146V112.6H90.0368V115.853H89.1561ZM102.695 112.216C102.695 112.983 102.556 113.646 102.279 114.205C102.002 114.764 101.622 115.194 101.139 115.497C100.656 115.8 100.105 115.952 99.4846 115.952C98.8643 115.952 98.3127 115.8 97.8297 115.497C97.3468 115.194 96.9668 114.764 96.6898 114.205C96.4128 113.646 96.2743 112.983 96.2743 112.216C96.2743 111.449 96.4128 110.786 96.6898 110.228C96.9668 109.669 97.3468 109.238 97.8297 108.935C98.3127 108.632 98.8643 108.48 99.4846 108.48C100.105 108.48 100.656 108.632 101.139 108.935C101.622 109.238 102.002 109.669 102.279 110.228C102.556 110.786 102.695 111.449 102.695 112.216ZM101.843 112.216C101.843 111.586 101.737 111.055 101.526 110.622C101.318 110.188 101.035 109.861 100.678 109.638C100.323 109.416 99.9249 109.304 99.4846 109.304C99.0442 109.304 98.6453 109.416 98.2878 109.638C97.9327 109.861 97.6498 110.188 97.4391 110.622C97.2308 111.055 97.1266 111.586 97.1266 112.216C97.1266 112.846 97.2308 113.377 97.4391 113.811C97.6498 114.244 97.9327 114.572 98.2878 114.794C98.6453 115.017 99.0442 115.128 99.4846 115.128C99.9249 115.128 100.323 115.017 100.678 114.794C101.035 114.572 101.318 114.244 101.526 113.811C101.737 113.377 101.843 112.846 101.843 112.216ZM106.988 115.853V108.58H109.531C110.037 108.58 110.455 108.667 110.784 108.843C111.113 109.015 111.358 109.249 111.519 109.542C111.68 109.833 111.761 110.157 111.761 110.512C111.761 110.824 111.705 111.082 111.594 111.286C111.485 111.489 111.341 111.65 111.161 111.769C110.983 111.887 110.79 111.975 110.582 112.032V112.103C110.804 112.117 111.028 112.195 111.253 112.337C111.478 112.479 111.666 112.683 111.818 112.948C111.969 113.213 112.045 113.537 112.045 113.921C112.045 114.285 111.962 114.613 111.796 114.904C111.631 115.196 111.369 115.426 111.012 115.597C110.654 115.767 110.189 115.853 109.616 115.853H106.988ZM107.869 115.071H109.616C110.191 115.071 110.6 114.96 110.841 114.737C111.085 114.513 111.207 114.24 111.207 113.921C111.207 113.675 111.144 113.447 111.019 113.239C110.893 113.028 110.714 112.86 110.482 112.735C110.25 112.607 109.976 112.543 109.659 112.543H107.869V115.071ZM107.869 111.776H109.502C109.767 111.776 110.007 111.724 110.22 111.62C110.435 111.515 110.606 111.369 110.731 111.179C110.859 110.99 110.923 110.767 110.923 110.512C110.923 110.192 110.811 109.921 110.589 109.698C110.366 109.474 110.014 109.361 109.531 109.361H107.869V111.776Z" fill="white"/>
<path d="M52.9287 130.865H48.8547L48.1547 132.853H46.4887L49.9747 123.109H51.8227L55.3087 132.853H53.6287L52.9287 130.865ZM52.4807 129.563L50.8987 125.041L49.3027 129.563H52.4807ZM58.4204 126.273C58.6911 125.918 59.0597 125.619 59.5264 125.377C59.9931 125.134 60.5204 125.013 61.1084 125.013C61.7804 125.013 62.3917 125.181 62.9424 125.517C63.5024 125.843 63.9411 126.305 64.2584 126.903C64.5757 127.5 64.7344 128.186 64.7344 128.961C64.7344 129.735 64.5757 130.431 64.2584 131.047C63.9411 131.653 63.5024 132.129 62.9424 132.475C62.3917 132.811 61.7804 132.979 61.1084 132.979C60.5204 132.979 59.9977 132.862 59.5404 132.629C59.0831 132.386 58.7097 132.087 58.4204 131.733V136.521H56.8244V125.139H58.4204V126.273ZM63.1104 128.961C63.1104 128.429 62.9984 127.971 62.7744 127.589C62.5597 127.197 62.2704 126.903 61.9064 126.707C61.5517 126.501 61.1691 126.399 60.7584 126.399C60.3571 126.399 59.9744 126.501 59.6104 126.707C59.2557 126.912 58.9664 127.211 58.7424 127.603C58.5277 127.995 58.4204 128.457 58.4204 128.989C58.4204 129.521 58.5277 129.987 58.7424 130.389C58.9664 130.781 59.2557 131.079 59.6104 131.285C59.9744 131.49 60.3571 131.593 60.7584 131.593C61.1691 131.593 61.5517 131.49 61.9064 131.285C62.2704 131.07 62.5597 130.762 62.7744 130.361C62.9984 129.959 63.1104 129.493 63.1104 128.961ZM67.9087 126.273C68.1794 125.918 68.548 125.619 69.0147 125.377C69.4814 125.134 70.0087 125.013 70.5967 125.013C71.2687 125.013 71.88 125.181 72.4307 125.517C72.9907 125.843 73.4294 126.305 73.7467 126.903C74.064 127.5 74.2227 128.186 74.2227 128.961C74.2227 129.735 74.064 130.431 73.7467 131.047C73.4294 131.653 72.9907 132.129 72.4307 132.475C71.88 132.811 71.2687 132.979 70.5967 132.979C70.0087 132.979 69.486 132.862 69.0287 132.629C68.5714 132.386 68.198 132.087 67.9087 131.733V136.521H66.3127V125.139H67.9087V126.273ZM72.5987 128.961C72.5987 128.429 72.4867 127.971 72.2627 127.589C72.048 127.197 71.7587 126.903 71.3947 126.707C71.04 126.501 70.6574 126.399 70.2467 126.399C69.8454 126.399 69.4627 126.501 69.0987 126.707C68.744 126.912 68.4547 127.211 68.2307 127.603C68.016 127.995 67.9087 128.457 67.9087 128.989C67.9087 129.521 68.016 129.987 68.2307 130.389C68.4547 130.781 68.744 131.079 69.0987 131.285C69.4627 131.49 69.8454 131.593 70.2467 131.593C70.6574 131.593 71.04 131.49 71.3947 131.285C71.7587 131.07 72.048 130.762 72.2627 130.361C72.4867 129.959 72.5987 129.493 72.5987 128.961ZM82.6437 132.951C81.9904 132.951 81.4024 132.839 80.8797 132.615C80.357 132.381 79.9464 132.055 79.6477 131.635C79.349 131.215 79.1997 130.725 79.1997 130.165H80.9077C80.945 130.585 81.1084 130.93 81.3977 131.201C81.6964 131.471 82.1117 131.607 82.6437 131.607C83.1944 131.607 83.6237 131.476 83.9317 131.215C84.2397 130.944 84.3937 130.599 84.3937 130.179C84.3937 129.852 84.2957 129.586 84.0997 129.381C83.913 129.175 83.675 129.017 83.3857 128.905C83.1057 128.793 82.7137 128.671 82.2097 128.541C81.575 128.373 81.057 128.205 80.6557 128.037C80.2637 127.859 79.9277 127.589 79.6477 127.225C79.3677 126.861 79.2277 126.375 79.2277 125.769C79.2277 125.209 79.3677 124.719 79.6477 124.299C79.9277 123.879 80.3197 123.557 80.8237 123.333C81.3277 123.109 81.911 122.997 82.5737 122.997C83.5164 122.997 84.2864 123.235 84.8837 123.711C85.4904 124.177 85.8264 124.821 85.8917 125.643H84.1277C84.0997 125.288 83.9317 124.985 83.6237 124.733C83.3157 124.481 82.9097 124.355 82.4057 124.355C81.9484 124.355 81.575 124.471 81.2857 124.705C80.9964 124.938 80.8517 125.274 80.8517 125.713C80.8517 126.011 80.9404 126.259 81.1177 126.455C81.3044 126.641 81.5377 126.791 81.8177 126.903C82.0977 127.015 82.4804 127.136 82.9657 127.267C83.6097 127.444 84.1324 127.621 84.5337 127.799C84.9444 127.976 85.2897 128.251 85.5697 128.625C85.859 128.989 86.0037 129.479 86.0037 130.095C86.0037 130.589 85.8684 131.056 85.5977 131.495C85.3364 131.933 84.949 132.288 84.4357 132.559C83.9317 132.82 83.3344 132.951 82.6437 132.951ZM89.7489 126.441V130.711C89.7489 131 89.8142 131.21 89.9449 131.341C90.0849 131.462 90.3182 131.523 90.6449 131.523H91.6249V132.853H90.3649C89.6462 132.853 89.0956 132.685 88.7129 132.349C88.3302 132.013 88.1389 131.467 88.1389 130.711V126.441H87.2289V125.139H88.1389V123.221H89.7489V125.139H91.6249V126.441H89.7489ZM96.4419 132.979C95.7139 132.979 95.0559 132.815 94.4679 132.489C93.8799 132.153 93.4179 131.686 93.0819 131.089C92.7459 130.482 92.5779 129.782 92.5779 128.989C92.5779 128.205 92.7506 127.509 93.0959 126.903C93.4412 126.296 93.9126 125.829 94.5099 125.503C95.1072 125.176 95.7746 125.013 96.5119 125.013C97.2492 125.013 97.9166 125.176 98.5139 125.503C99.1112 125.829 99.5826 126.296 99.9279 126.903C100.273 127.509 100.446 128.205 100.446 128.989C100.446 129.773 100.269 130.468 99.9139 131.075C99.5592 131.681 99.0739 132.153 98.4579 132.489C97.8512 132.815 97.1792 132.979 96.4419 132.979ZM96.4419 131.593C96.8526 131.593 97.2352 131.495 97.5899 131.299C97.9539 131.103 98.2479 130.809 98.4719 130.417C98.6959 130.025 98.8079 129.549 98.8079 128.989C98.8079 128.429 98.7006 127.957 98.4859 127.575C98.2712 127.183 97.9866 126.889 97.6319 126.693C97.2772 126.497 96.8946 126.399 96.4839 126.399C96.0732 126.399 95.6906 126.497 95.3359 126.693C94.9906 126.889 94.7152 127.183 94.5099 127.575C94.3046 127.957 94.2019 128.429 94.2019 128.989C94.2019 129.819 94.4119 130.463 94.8319 130.921C95.2612 131.369 95.7979 131.593 96.4419 131.593ZM103.62 126.259C103.853 125.867 104.161 125.563 104.544 125.349C104.936 125.125 105.398 125.013 105.93 125.013V126.665H105.524C104.898 126.665 104.422 126.823 104.096 127.141C103.778 127.458 103.62 128.009 103.62 128.793V132.853H102.024V125.139H103.62V126.259ZM114.467 128.807C114.467 129.096 114.448 129.357 114.411 129.591H108.517C108.563 130.207 108.792 130.701 109.203 131.075C109.613 131.448 110.117 131.635 110.715 131.635C111.573 131.635 112.18 131.275 112.535 130.557H114.257C114.023 131.266 113.599 131.849 112.983 132.307C112.376 132.755 111.62 132.979 110.715 132.979C109.977 132.979 109.315 132.815 108.727 132.489C108.148 132.153 107.691 131.686 107.355 131.089C107.028 130.482 106.865 129.782 106.865 128.989C106.865 128.195 107.023 127.5 107.341 126.903C107.667 126.296 108.12 125.829 108.699 125.503C109.287 125.176 109.959 125.013 110.715 125.013C111.443 125.013 112.091 125.171 112.661 125.489C113.23 125.806 113.673 126.254 113.991 126.833C114.308 127.402 114.467 128.06 114.467 128.807ZM112.801 128.303C112.791 127.715 112.581 127.243 112.171 126.889C111.76 126.534 111.251 126.357 110.645 126.357C110.094 126.357 109.623 126.534 109.231 126.889C108.839 127.234 108.605 127.705 108.531 128.303H112.801Z" fill="white"/>
<defs>
<linearGradient id="paint0_linear_1516_3799" x1="1312" y1="109.353" x2="1312" y2="2709.35" gradientUnits="userSpaceOnUse">
<stop stop-color="#17C9FB"/>
<stop offset="1" stop-color="#1A74E8"/>
</linearGradient>
<clipPath id="clip0_1516_3799">
<rect width="24" height="26.6667" fill="white" transform="translate(12 48.019)"/>
</clipPath>
<clipPath id="clip1_1516_3799">
<rect width="26" height="26" fill="white" transform="translate(12 109.353)"/>
</clipPath>
</defs>
</svg>
