<svg width="119" height="24" viewBox="0 0 119 24" fill="none" xmlns="http://www.w3.org/2000/svg">
<path d="M9.00024 15.9526L12.1127 17.8351C12.6827 18.1801 13.3802 17.6701 13.2302 17.0251L12.4052 13.4851L15.1577 11.1001C15.6602 10.6651 15.3902 9.84007 14.7302 9.78757L11.1077 9.48007L9.69024 6.13507C9.43524 5.52757 8.56524 5.52757 8.31024 6.13507L6.89274 9.47257L3.27024 9.78007C2.61024 9.83257 2.34024 10.6576 2.84274 11.0926L5.59524 13.4776L4.77024 17.0176C4.62024 17.6626 5.31774 18.1726 5.88774 17.8276L9.00024 15.9526Z" fill="#F2C94C"/>
<path d="M27.0002 15.9526L30.1127 17.8351C30.6827 18.1801 31.3802 17.6701 31.2302 17.0251L30.4052 13.4851L33.1577 11.1001C33.6602 10.6651 33.3902 9.84007 32.7302 9.78757L29.1077 9.48007L27.6902 6.13507C27.4352 5.52757 26.5652 5.52757 26.3102 6.13507L24.8927 9.47257L21.2702 9.78007C20.6102 9.83257 20.3402 10.6576 20.8427 11.0926L23.5952 13.4776L22.7702 17.0176C22.6202 17.6626 23.3177 18.1726 23.8877 17.8276L27.0002 15.9526Z" fill="#F2C94C"/>
<path d="M45.0002 15.9526L48.1127 17.8351C48.6827 18.1801 49.3802 17.6701 49.2302 17.0251L48.4052 13.4851L51.1577 11.1001C51.6602 10.6651 51.3902 9.84007 50.7302 9.78757L47.1077 9.48007L45.6902 6.13507C45.4352 5.52757 44.5652 5.52757 44.3102 6.13507L42.8927 9.47257L39.2702 9.78007C38.6102 9.83257 38.3402 10.6576 38.8427 11.0926L41.5952 13.4776L40.7702 17.0176C40.6202 17.6626 41.3177 18.1726 41.8877 17.8276L45.0002 15.9526Z" fill="#F2C94C"/>
<path d="M63.0002 15.9526L66.1127 17.8351C66.6827 18.1801 67.3802 17.6701 67.2302 17.0251L66.4052 13.4851L69.1577 11.1001C69.6602 10.6651 69.3902 9.84007 68.7302 9.78757L65.1077 9.48007L63.6902 6.13507C63.4352 5.52757 62.5652 5.52757 62.3102 6.13507L60.8927 9.47257L57.2702 9.78007C56.6102 9.83257 56.3402 10.6576 56.8427 11.0926L59.5952 13.4776L58.7702 17.0176C58.6202 17.6626 59.3177 18.1726 59.8877 17.8276L63.0002 15.9526Z" fill="#F2C94C"/>
<path d="M81.0002 15.9526L84.1127 17.8351C84.6827 18.1801 85.3802 17.6701 85.2302 17.0251L84.4052 13.4851L87.1577 11.1001C87.6602 10.6651 87.3902 9.84007 86.7302 9.78757L83.1077 9.48007L81.6902 6.13507C81.4352 5.52757 80.5652 5.52757 80.3102 6.13507L78.8927 9.47257L75.2702 9.78007C74.6102 9.83257 74.3402 10.6576 74.8427 11.0926L77.5952 13.4776L76.7702 17.0176C76.6202 17.6626 77.3177 18.1726 77.8877 17.8276L81.0002 15.9526Z" fill="#F2C94C"/>
<path d="M94.8262 14.792V14.6953H96.3818V14.792C96.3818 15.4541 96.6104 15.9727 97.0674 16.3477C97.5244 16.7227 98.1367 16.9102 98.9043 16.9102C99.6719 16.9102 100.299 16.6523 100.785 16.1367C101.271 15.6152 101.515 14.874 101.515 13.9131C101.515 12.9521 101.271 12.2285 100.785 11.7422C100.299 11.2559 99.6777 11.0127 98.9219 11.0127C98.3945 11.0127 97.9258 11.1094 97.5156 11.3027C97.1055 11.4961 96.7305 11.7656 96.3906 12.1113L95.2656 11.5928L95.916 5.20312H102.455V6.63574H97.2344L96.8389 10.3535C97.1318 10.166 97.4775 10.0049 97.876 9.87012C98.2744 9.72949 98.708 9.65918 99.1768 9.65918C100.272 9.65918 101.204 10.0312 101.972 10.7754C102.739 11.5137 103.123 12.5596 103.123 13.9131C103.123 15.2666 102.725 16.3301 101.928 17.1035C101.131 17.8711 100.123 18.2549 98.9043 18.2549C97.6152 18.2549 96.6133 17.9297 95.8984 17.2793C95.1836 16.623 94.8262 15.7939 94.8262 14.792ZM105.373 17.1211C105.373 16.8281 105.467 16.5791 105.654 16.374C105.848 16.1631 106.123 16.0576 106.48 16.0576C106.838 16.0576 107.11 16.1631 107.298 16.374C107.491 16.5791 107.588 16.8281 107.588 17.1211C107.588 17.4199 107.491 17.6748 107.298 17.8857C107.11 18.0908 106.838 18.1934 106.48 18.1934C106.123 18.1934 105.848 18.0908 105.654 17.8857C105.467 17.6748 105.373 17.4199 105.373 17.1211ZM109.935 13.9834V9.21973C109.935 7.93066 110.289 6.89648 110.998 6.11719C111.713 5.33789 112.703 4.94824 113.969 4.94824C115.229 4.94824 116.216 5.33789 116.931 6.11719C117.651 6.89648 118.012 7.93066 118.012 9.21973V13.9834C118.012 15.2725 117.651 16.3066 116.931 17.0859C116.216 17.8652 115.229 18.2549 113.969 18.2549C112.703 18.2549 111.713 17.8652 110.998 17.0859C110.289 16.3066 109.935 15.2725 109.935 13.9834ZM111.578 14.0713C111.578 14.9033 111.771 15.5859 112.158 16.1191C112.551 16.6465 113.154 16.9102 113.969 16.9102C114.789 16.9102 115.393 16.6465 115.779 16.1191C116.172 15.5859 116.368 14.9033 116.368 14.0713V9.13184C116.368 8.2998 116.172 7.62012 115.779 7.09277C115.393 6.55957 114.789 6.29297 113.969 6.29297C113.154 6.29297 112.551 6.55957 112.158 7.09277C111.771 7.62012 111.578 8.2998 111.578 9.13184V14.0713Z" fill="#636363"/>
</svg>
